#!OML:ASF E:\Style4\Style4.ASF
:FULLY-SPECIFIED
:DEGREES
750
root 0.0419706 17.2161 -1.2121 -3.72838 -18.5444 5.8245
lowerback 13.315 1.25734 -2.47364
upperback 12.1595 1.2945 0.21546
thorax 5.37749 0.406241 1.49738
lowerneck 8.01564 -1.316 -4.06605
upperneck 5.67537 -1.96802 -4.47775
head 0.426674 -1.05564 -0.66587
rclavicle -2.26615e-014 -1.11319e-014
rhumerus 13.1267 20.0035 -84.0059
rradius 133.605
rwrist 17.4897
rhand 38.3536 -8.77269
rfingers 7.12502
rthumb 61.0169 -21.4392
lclavicle -2.26615e-014 -1.11319e-014
lhumerus 10.7936 -22.1908 89.8942
lradius 135.1
lwrist -7.44724
lhand 29.4103 46.3766
lfingers 7.12502
lthumb 53.176 65.7568
rfemur -23.8909 4.30347 13.8588
rtibia 47.2837
rfoot -20.5411 -9.62858
rtoes -10.9015
lfemur -15.3782 15.7197 -23.4543
ltibia 41.9568
lfoot -25.5454 14.9277
ltoes -10.6628
751
root 0.036665 17.2185 -1.21488 -3.70234 -18.493 5.88622
lowerback 13.2506 1.3468 -2.57796
upperback 12.1824 1.40871 0.148313
thorax 5.43259 0.458688 1.47669
lowerneck 8.11043 -1.28397 -4.10973
upperneck 5.63043 -1.94217 -4.17547
head 0.401753 -1.04123 -0.565908
rclavicle -9.54166e-015 2.8625e-014
rhumerus 13.1101 19.7715 -83.9872
rradius 133.599
rwrist 17.5162
rhand 38.487 -8.55596
rfingers 7.12502
rthumb 61.1296 -21.0931
lclavicle -9.54166e-015 2.8625e-014
lhumerus 10.7316 -22.2684 89.9903
lradius 135.056
lwrist -7.50181
lhand 29.4099 46.4356
lfingers 7.12502
lthumb 53.1757 65.8161
rfemur -23.9388 4.27003 13.8043
rtibia 47.2841
rfoot -20.4989 -9.66797
rtoes -11.3311
lfemur -15.3772 15.6811 -23.5011
ltibia 41.8751
lfoot -25.6156 14.713
ltoes -9.69988
752
root 0.0314671 17.2207 -1.21676 -3.62694 -18.3831 5.85615
lowerback 13.1712 1.38374 -2.62825
upperback 12.1968 1.45804 0.120687
thorax 5.48902 0.480691 1.47324
lowerneck 8.27747 -1.17773 -4.28291
upperneck 5.30003 -1.84893 -3.66235
head 0.28151 -0.987599 -0.380647
rclavicle -9.93923e-015 4.77083e-015
rhumerus 13.1587 19.6745 -83.9655
rradius 133.598
rwrist 17.5407
rhand 38.6435 -8.68291
rfingers 7.12502
rthumb 61.2615 -21.067
lclavicle -9.93923e-015 4.77083e-015
lhumerus 10.7231 -22.2262 90.0266
lradius 134.951
lwrist -7.55594
lhand 29.4201 46.2472
lfingers 7.12502
lthumb 53.1848 65.6218
rfemur -23.9682 4.1827 13.8405
rtibia 47.2558
rfoot -20.4487 -9.76609
rtoes -11.8015
lfemur -15.4169 15.6373 -23.4687
ltibia 41.7999
lfoot -25.5587 14.5972
ltoes -9.59233
753
root 0.0260799 17.2241 -1.22148 -3.58067 -18.2711 5.81544
lowerback 13.1383 1.41032 -2.69096
upperback 12.2095 1.49049 0.110023
thorax 5.51876 0.492781 1.49518
lowerneck 8.58609 -1.09367 -4.46268
upperneck 4.89694 -1.79372 -3.24542
head 0.113867 -0.950373 -0.221674
rclavicle -1.15295e-014 2.14687e-014
rhumerus 13.1167 19.6392 -84.0113
rradius 133.668
rwrist 17.5967
rhand 38.7537 -8.70832
rfingers 7.12502
rthumb 61.3543 -20.9837
lclavicle -1.15295e-014 2.14687e-014
lhumerus 10.7613 -22.2252 90.0276
lradius 134.811
lwrist -7.65989
lhand 29.2314 46.1125
lfingers 7.12502
lthumb 53.0147 65.5956
rfemur -23.9611 4.1289 13.8987
rtibia 47.2051
rfoot -20.4057 -9.84796
rtoes -11.5388
lfemur -15.4572 15.5961 -23.4219
ltibia 41.7401
lfoot -25.4365 14.658
ltoes -10.144
754
root 0.0205144 17.2275 -1.22792 -3.52065 -18.1144 5.7689
lowerback 13.123 1.43073 -2.73595
upperback 12.2099 1.51549 0.117538
thorax 5.52549 0.50221 1.52653
lowerneck 8.79574 -1.0954 -4.55154
upperneck 4.74926 -1.82395 -3.06907
head 0.0370091 -0.961616 -0.150387
rclavicle -1.07344e-014 2.94201e-014
rhumerus 12.9424 19.6343 -84.1129
rradius 133.805
rwrist 17.6533
rhand 38.5887 -8.61875
rfingers 7.12502
rthumb 61.2153 -21.0566
lclavicle -1.07344e-014 2.94201e-014
lhumerus 10.9003 -22.2549 89.9979
lradius 134.748
lwrist -7.73753
lhand 29.063 46.0904
lfingers 7.12502
lthumb 52.8626 65.6693
rfemur -23.9507 4.03686 13.9561
rtibia 47.1303
rfoot -20.3617 -9.89489
rtoes -11.2456
lfemur -15.5267 15.5124 -23.3736
ltibia 41.6876
lfoot -25.3367 14.6763
ltoes -10.4747
755
root 0.016203 17.2321 -1.23448 -3.45204 -17.9555 5.67941
lowerback 13.1617 1.4579 -2.69923
upperback 12.1968 1.55415 0.12535
thorax 5.48869 0.525226 1.51015
lowerneck 8.79958 -1.13676 -4.64885
upperneck 4.77629 -1.88842 -2.83703
head 0.0481232 -0.997119 -0.0626034
rclavicle -2.54444e-014 -8.74653e-015
rhumerus 12.827 19.5799 -84.1901
rradius 133.909
rwrist 17.676
rhand 38.4722 -8.67225
rfingers 7.12502
rthumb 61.1171 -21.2238
lclavicle -2.54444e-014 -8.74653e-015
lhumerus 11.1349 -22.2699 89.9158
lradius 134.729
lwrist -7.75969
lhand 29.0886 46.0996
lfingers 7.12502
lthumb 52.8857 65.664
rfemur -23.9256 3.87513 14.0548
rtibia 47.0357
rfoot -20.29 -9.91832
rtoes -11.5653
lfemur -15.5694 15.4607 -23.2906
ltibia 41.6423
lfoot -25.225 14.6301
ltoes -10.6255
756
root 0.00954817 17.2381 -1.24076 -3.4084 -17.7797 5.74986
lowerback 13.1606 1.48698 -2.85351
upperback 12.1694 1.58185 0.110837
thorax 5.45569 0.530302 1.57856
lowerneck 8.80861 -1.14879 -4.80314
upperneck 4.80745 -1.91991 -2.57842
head 0.060127 -1.01739 0.0419654
rclavicle -2.46493e-014 -6.36111e-015
rhumerus 12.8234 19.4971 -84.2391
rradius 133.907
rwrist 17.6539
rhand 38.5217 -8.75706
rfingers 7.12502
rthumb 61.1588 -21.2604
lclavicle -2.46493e-014 -6.36111e-015
lhumerus 11.3608 -22.3024 89.8386
lradius 134.715
lwrist -7.75014
lhand 29.1654 46.151
lfingers 7.12502
lthumb 52.9551 65.6718
rfemur -23.9161 3.71679 13.9804
rtibia 46.9317
rfoot -20.2126 -9.90859
rtoes -11.6084
lfemur -15.6312 15.4069 -23.3738
ltibia 41.5934
lfoot -25.1328 14.5506
ltoes -10.7596
757
root 0.00105798 17.2439 -1.25106 -3.30812 -17.5916 5.6837
lowerback 13.2108 1.5122 -2.88783
upperback 12.0988 1.61166 0.123801
thorax 5.34804 0.545641 1.60705
lowerneck 8.85209 -1.16574 -4.84775
upperneck 4.8597 -1.94876 -2.41127
head 0.0713001 -1.03436 0.101068
rclavicle 7.95139e-016 -6.36111e-015
rhumerus 12.8039 19.3299 -84.3152
rradius 133.907
rwrist 17.5055
rhand 38.6519 -8.64386
rfingers 7.12502
rthumb 61.2686 -21.0197
lclavicle 7.95139e-016 -6.36111e-015
lhumerus 11.5573 -22.3645 89.7426
lradius 134.703
lwrist -7.73215
lhand 29.158 46.1207
lfingers 7.12502
lthumb 52.9483 65.6457
rfemur -23.9254 3.61438 14.0649
rtibia 46.8118
rfoot -20.1127 -9.95152
rtoes -11.5172
lfemur -15.7556 15.2897 -23.3042
ltibia 41.5517
lfoot -25.0117 14.4998
ltoes -10.6605
758
root -0.00583072 17.2484 -1.25923 -3.17159 -17.409 5.48851
lowerback 13.2564 1.53351 -2.76969
upperback 12.0314 1.64876 0.15534
thorax 5.24817 0.574406 1.56926
lowerneck 8.79492 -1.217 -4.74902
upperneck 4.96138 -2.0014 -2.33225
head 0.112236 -1.06227 0.109045
rclavicle -3.53837e-014 4.77083e-014
rhumerus 12.7855 19.232 -84.4051
rradius 134.003
rwrist 17.2702
rhand 38.8427 -8.70281
rfingers 7.12502
rthumb 61.429 -20.8899
lclavicle -3.53837e-014 4.77083e-014
lhumerus 11.7289 -22.482 89.6301
lradius 134.717
lwrist -7.74878
lhand 29.0762 46.077
lfingers 7.12502
lthumb 52.8746 65.6484
rfemur -23.9231 3.53199 14.2935
rtibia 46.687
rfoot -20.0176 -10.1124
rtoes -11.8558
lfemur -15.8612 15.2047 -23.1001
ltibia 41.4877
lfoot -24.8538 14.4738
ltoes -10.7732
759
root -0.0107098 17.2537 -1.2641 -3.09471 -17.2479 5.39353
lowerback 13.287 1.5761 -2.69033
upperback 11.981 1.71195 0.161904
thorax 5.17422 0.613959 1.525
lowerneck 8.78216 -1.28402 -4.62841
upperneck 5.00971 -2.07696 -2.29411
head 0.129197 -1.09913 0.102292
rclavicle -2.38542e-014 4.29375e-014
rhumerus 12.7379 19.1962 -84.5229
rradius 134.09
rwrist 17.2702
rhand 38.8947 -8.78396
rfingers 7.12502
rthumb 61.4728 -20.9192
lclavicle -2.38542e-014 4.29375e-014
lhumerus 11.874 -22.5593 89.5823
lradius 134.743
lwrist -7.82254
lhand 29.3637 45.9968
lfingers 7.12502
lthumb 53.134 65.404
rfemur -23.8811 3.41981 14.3974
rtibia 46.5588
rfoot -19.9764 -10.1467
rtoes -11.8562
lfemur -15.8942 15.1707 -22.9923
ltibia 41.4198
lfoot -24.84 14.3116
ltoes -10.677
760
root -0.0169951 17.2607 -1.26855 -3.1073 -17.0774 5.45272
lowerback 13.3473 1.62714 -2.81345
upperback 11.9514 1.7678 0.169213
thorax 5.10416 0.635252 1.59487
lowerneck 8.81744 -1.35729 -4.62963
upperneck 4.9618 -2.17802 -2.20485
head 0.110669 -1.1482 0.132907
rclavicle -5.88403e-014 4.21423e-014
rhumerus 12.6864 19.1883 -84.5937
rradius 134.154
rwrist 17.3422
rhand 38.7258 -8.77161
rfingers 7.12502
rthumb 61.3308 -21.0746
lclavicle -5.88403e-014 4.21423e-014
lhumerus 12.1277 -22.5873 89.5135
lradius 134.774
lwrist -7.83781
lhand 29.6949 46.0884
lfingers 7.12502
lthumb 53.4325 65.3031
rfemur -23.7902 3.28653 14.3336
rtibia 46.4378
rfoot -19.9943 -10.0532
rtoes -11.2959
lfemur -15.8649 15.1585 -23.0314
ltibia 41.338
lfoot -24.7928 14.1363
ltoes -10.742
761
root -0.0246608 17.2675 -1.27346 -3.03281 -16.8975 5.39467
lowerback 13.3351 1.64352 -2.83285
upperback 11.9244 1.78926 0.18887
thorax 5.07879 0.645267 1.62445
lowerneck 8.80726 -1.40862 -4.66869
upperneck 4.93049 -2.25149 -2.02507
head 0.105534 -1.18553 0.196291
rclavicle -2.10712e-014 3.18055e-015
rhumerus 12.7499 19.1809 -84.6804
rradius 134.14
rwrist 17.2819
rhand 38.8379 -8.70399
rfingers 7.12502
rthumb 61.4251 -20.8958
lclavicle -2.10712e-014 3.18055e-015
lhumerus 12.4597 -22.6498 89.2952
lradius 134.83
lwrist -7.67977
lhand 29.6345 46.1759
lfingers 7.12502
lthumb 53.3781 65.4259
rfemur -23.7515 3.1835 14.4086
rtibia 46.3251
rfoot -19.9618 -10.1352
rtoes -11.4139
lfemur -15.9189 15.139 -22.9574
ltibia 41.2628
lfoot -24.6487 14.0249
ltoes -10.7013
762
root -0.0306352 17.2716 -1.27877 -2.89769 -16.7451 5.29892
lowerback 13.2624 1.66278 -2.81639
upperback 11.8908 1.81944 0.221112
thorax 5.07857 0.661314 1.64776
lowerneck 8.7959 -1.43173 -4.62446
upperneck 4.93664 -2.27747 -1.98183
head 0.109512 -1.19805 0.202757
rclavicle 2.38542e-014 -1.66979e-014
rhumerus 12.8766 19.1591 -84.7065
rradius 134.093
rwrist 17.1566
rhand 38.9893 -8.59185
rfingers 7.12502
rthumb 61.5522 -20.6324
lclavicle 2.38542e-014 -1.66979e-014
lhumerus 12.8016 -22.6731 89.096
lradius 134.885
lwrist -7.51443
lhand 29.4422 46.1467
lfingers 7.12502
lthumb 53.2048 65.5085
rfemur -23.8046 3.09592 14.5181
rtibia 46.2384
rfoot -19.9067 -10.2196
rtoes -11.5073
lfemur -16.0411 15.0887 -22.8704
ltibia 41.1942
lfoot -24.5366 13.958
ltoes -10.654
